<?xml version="1.0" encoding="UTF-8"?>
<!-- Created with Inkscape (http://www.inkscape.org/) -->
<svg width="179.22mm" height="25.4mm" version="1.1" viewBox="0 0 179.22 25.4" xmlns="http://www.w3.org/2000/svg" xmlns:cc="http://creativecommons.org/ns#" xmlns:dc="http://purl.org/dc/elements/1.1/" xmlns:rdf="http://www.w3.org/1999/02/22-rdf-syntax-ns#">
 <metadata>
  <rdf:RDF>
   <cc:Work rdf:about="">
    <dc:format>image/svg+xml</dc:format>
    <dc:type rdf:resource="http://purl.org/dc/dcmitype/StillImage"/>
    <dc:title/>
   </cc:Work>
  </rdf:RDF>
 </metadata>
 <g transform="translate(-.61443 -34.913)">
  <g transform="translate(.11736 -21.733)" fill="#7f0037" stroke-width=".26458" style="font-feature-settings:normal;font-variant-caps:normal;font-variant-ligatures:normal;font-variant-numeric:normal" aria-label="GAMERS">
   <path d="m93.482 76.828q-2.8553 1.5551-6.3607 1.5551-4.0535 0-6.5646-2.5239t-2.5111-6.6794q0-4.2447 2.7406-6.9598 2.7533-2.7278 6.9853-2.7278 3.0465 0 5.1242 0.89228v3.123q-2.1032-1.4022-5.0095-1.4022-2.919 0-4.7928 1.9248-1.861 1.9248-1.861 4.984 0 3.1485 1.6061 4.9585 1.6061 1.7973 4.3594 1.7973 1.8865 0 3.2632-0.72657v-4.3467h-3.8495v-2.5494h6.8706z" style="font-feature-settings:normal;font-variant-caps:normal;font-variant-ligatures:normal;font-variant-numeric:normal"/>
   <path d="m112.44 78.077h-3.3269l-1.6444-4.6526h-7.1892l-1.5806 4.6526h-3.3142l6.8451-18.279h3.4162zm-5.7743-7.1255-2.5366-7.2912q-0.11472-0.35691-0.24219-1.1472h-0.051q-0.11472 0.72657-0.25494 1.1472l-2.5111 7.2912z" style="font-feature-settings:normal;font-variant-caps:normal;font-variant-ligatures:normal;font-variant-numeric:normal"/>
   <path d="m134.59 78.077h-3.0083v-11.829q0-1.4531 0.17846-3.5564h-0.051q-0.28043 1.1982-0.49713 1.7208l-5.4556 13.665h-2.0905l-5.4684-13.563q-0.22945-0.5991-0.48438-1.8228h-0.051q0.10197 1.0962 0.10197 3.5819v11.804h-2.8043v-18.279h4.2702l4.8056 12.173q0.54811 1.4022 0.71382 2.0905h0.0637q0.47164-1.4404 0.76481-2.1415l4.8948-12.122h4.1172z" style="font-feature-settings:normal;font-variant-caps:normal;font-variant-ligatures:normal;font-variant-numeric:normal"/>
   <path d="m149.34 78.077h-10.261v-18.279h9.8533v2.5749h-6.8196v5.1752h6.2842v2.5621h-6.2842v5.4047h7.2275z" style="font-feature-settings:normal;font-variant-caps:normal;font-variant-ligatures:normal;font-variant-numeric:normal"/>
   <path d="m166.71 78.077h-3.5436l-2.919-4.8948q-0.39515-0.67558-0.77756-1.1472-0.36965-0.48438-0.76481-0.7903-0.3824-0.30592-0.84129-0.44614t-1.0325-0.14022h-1.2237v7.4187h-3.021v-18.279h6.0165q1.2874 0 2.3709 0.30592 1.0835 0.30592 1.8865 0.93052 0.80305 0.61185 1.2492 1.5424 0.45889 0.91777 0.45889 2.1542 0 0.96876-0.29318 1.7846-0.28043 0.80305-0.8158 1.4404-0.52262 0.6246-1.2747 1.0707-0.73931 0.44614-1.6698 0.68833v0.05099q0.49712 0.28043 0.86678 0.6246 0.36966 0.33142 0.70108 0.68833t0.65009 0.8158q0.33142 0.44614 0.72657 1.0452zm-11.103-15.819v5.94h2.5239q0.70108 0 1.2874-0.2167 0.5991-0.2167 1.0325-0.6246 0.43339-0.4079 0.67559-0.99426 0.24219-0.58636 0.24219-1.3129 0-1.3129-0.82855-2.0522-0.82855-0.73932-2.3837-0.73932z" style="font-feature-settings:normal;font-variant-caps:normal;font-variant-ligatures:normal;font-variant-numeric:normal"/>
   <path d="m168.01 77.351v-3.123q0.42065 0.3824 0.99426 0.68833 0.58635 0.30592 1.2364 0.52262 0.65009 0.20395 1.3002 0.31867 0.65009 0.11472 1.1982 0.11472 1.912 0 2.8425-0.63734 0.94327-0.63734 0.94327-1.8483 0-0.65009-0.31867-1.1217-0.30592-0.48438-0.86679-0.87953-0.56086-0.39515-1.3257-0.75206-0.75206-0.36966-1.6188-0.76481-0.93052-0.49713-1.7336-1.007t-1.4022-1.1217q-0.58635-0.6246-0.93052-1.4022-0.33141-0.77756-0.33141-1.8228 0-1.2874 0.5736-2.2307 0.58636-0.95601 1.5296-1.5679 0.95601-0.6246 2.167-0.91777 1.211-0.30592 2.4729-0.30592 2.868 0 4.181 0.65009v2.9955q-1.5551-1.1217-4.0025-1.1217-0.67559 0-1.3512 0.12747-0.66284 0.12747-1.1982 0.42065-0.52262 0.29318-0.85404 0.75206t-0.33142 1.109q0 0.61185 0.25494 1.058 0.25493 0.44614 0.73931 0.8158 0.49713 0.36966 1.1982 0.72657 0.71382 0.34416 1.6443 0.75206 0.95602 0.49713 1.7973 1.0452 0.85404 0.54811 1.4914 1.211 0.65009 0.66284 1.0198 1.4786 0.3824 0.80305 0.3824 1.8355 0 1.3894-0.56086 2.3454t-1.5169 1.5551q-0.94327 0.5991-2.1797 0.86679-1.2364 0.26768-2.6131 0.26768-0.45889 0-1.1345-0.07648-0.66284-0.06373-1.3639-0.20395-0.70108-0.12747-1.3257-0.31867-0.62459-0.1912-1.007-0.43339z" style="font-feature-settings:normal;font-variant-caps:normal;font-variant-ligatures:normal;font-variant-numeric:normal"/>
  </g>
  <path d="m0.61443 42.85v14.288h3.175v-14.288z" fill="#ff0"/>
  <path d="m0.61443 38.088v3.175h3.175v-3.175z" fill="#f00"/>
  <path d="m3.7894 38.088v3.175h3.175v-3.175z" fill="#ff0"/>
  <g fill="#f00">
   <path d="m6.9644 38.088v3.175h3.175v15.875h3.175v-12.7h3.175v-3.175h-3.175v-3.175z"/>
   <path d="m16.489 44.438v3.175h3.175v-3.175z"/>
   <path d="m19.664 47.613v3.175h3.175v6.35h3.175v-15.875h3.175v15.875h12.7v-3.175h-9.525v-12.7h9.525v-3.175h-19.05v9.525z" image-rendering="auto"/>
   <path d="m41.889 41.263v12.7h3.175v-12.7z"/>
  </g>
  <path d="m48.239 42.85v14.288h3.175v-14.288z" fill="#ff0"/>
  <path d="m48.239 38.088v3.175h3.175v-3.175z" fill="#f00"/>
  <path d="m54.589 38.088h-3.175v3.175h3.175z" fill="#ff0"/>
  <path d="m54.589 38.088v3.175h3.175v15.875h12.7v-3.175h-9.525v-4.7625h7.9375v-3.175h-7.9375v-4.7625h8.9958v-3.175z" fill="#f00"/>
  <path d="m72.846 34.913v25.4h3.175v-25.4z" fill="#333"/>
 </g>
</svg>
