<svg id="svg10" inkscape:version="0.92.4 (5da689c313, 2019-01-14)" sodipodi:docname="logo-template.svg" version="1.1" viewBox="0 0 139.93 20.604" xmlns="http://www.w3.org/2000/svg" xmlns:inkscape="http://www.inkscape.org/namespaces/inkscape" xmlns:sodipodi="http://sodipodi.sourceforge.net/DTD/sodipodi-0.dtd">
 <sodipodi:namedview id="namedview12" bordercolor="#666666" borderopacity="1" fit-margin-bottom="0" fit-margin-left="0" fit-margin-right="0" fit-margin-top="0" gridtolerance="10" guidetolerance="10" inkscape:current-layer="svg10" inkscape:cx="76.259653" inkscape:cy="-18.804656" inkscape:pageopacity="0" inkscape:pageshadow="2" inkscape:window-height="480" inkscape:window-width="640" inkscape:zoom="4.9583333" objecttolerance="10" pagecolor="#ffffff" showgrid="false"/>
 <g id="g831" transform="translate(-.00064969 9.507e-6)" fill="none" stroke="#66595c" stroke-linecap="round" stroke-width=".86412">
  <path id="path2" d="m17.938 5.0015c.36512-1.8583.16094-3.2687-.7021-3.8291-.28768-.18682-.63258-.26857-1.0207-.25384-2.0961.079577-5.4782 2.9657-8.2416 7.2208-3.275 5.0431-4.4389 10.097-2.5978 11.293.87396.56756 2.2666.16523 3.8399-.95594" inkscape:connector-curvature="0"/>
  <path id="path4" d="m19.618 13.779c1.5544-.60302 2.5103-1.4284 2.56-2.3763.11489-2.1923-4.6561-4.2219-10.661-4.5366-.56297-.029505-1.1165-.045026-1.658-.043208-5.2344.017615-9.3202 1.4535-9.4243 3.4403-.049582.94608.81236 1.8635 2.2899 2.6248" inkscape:connector-curvature="0"/>
  <path id="path6" d="m9.8206 1.7338c-1.0635-.88242-2.061-1.3563-2.8624-1.2962-.21337.016003-.41071.068587-.59408.16202-1.956.99665-1.3312 6.1512 1.3988 11.509s6.5286 8.8926 8.4846 7.8959c1.8811-.95846 1.3734-5.7616-1.0964-10.893" inkscape:connector-curvature="0"/>
 </g>
 <path id="path8" d="m12.671 10.302a1.2962 1.2962 0 01-2.5924 0 1.2962 1.2962 0 112.5924 0z" fill="#66595c" stroke-width=".17282" inkscape:connector-curvature="0"/>
 <path id="path2-3" d="m31.426 17.958c0-.144.023-.312.12-.504l6.814-14.904c.24-.528.6-.84 1.2-.84h.096c.576 0 .96.312 1.176.84l6.816 14.88c.072.168.12.336.12.48a.912.912 0 01-.912.912c-.456 0-.768-.312-.936-.696l-1.752-3.864h-9.215l-1.752 3.912c-.168.408-.48.648-.912.648a.86.86 0 01-.864-.864zm4.271-5.424h7.728l-3.864-8.592zm31.314 5.328c0 .528.432.96.96.96s.96-.432.96-.96v-14.208h4.872c.48 0 .888-.384.888-.864a.902.902 0 00-.888-.888h-11.664a.902.902 0 00-.888.888c0 .48.408.864.888.864h4.872zm31.001 1.128c-5.112 0-8.544-4.008-8.544-8.64v-.048c0-4.632 3.48-8.688 8.592-8.688 5.112 0 8.544 4.008 8.544 8.64v.048c0 4.632-3.48 8.688-8.592 8.688zm.048-1.752c3.84 0 6.576-3.072 6.576-6.888v-.048c0-3.816-2.784-6.936-6.624-6.936-3.84 0-6.576 3.072-6.576 6.888v.048c0 3.816 2.784 6.936 6.624 6.936zm25.793.648c0 .528.408.936.912.936a.922.922 0 00.936-.936v-12.528l5.352 7.872c.216.312.48.48.816.48s.576-.168.792-.48l5.376-7.896v12.528c0 .504.432.96.96.96.504 0 .936-.432.936-.96v-15.096a.953.953 0 00-.936-.936h-.216c-.384 0-.696.192-.888.504l-6 9.024-6-9.024c-.192-.288-.48-.504-.888-.504h-.216a.953.953 0 00-.936.936z" fill="#eed9b7" fill-rule="evenodd" inkscape:connector-curvature="0"/>
</svg>
